<svg id="Layer_1" data-name="Layer 1" xmlns="http://www.w3.org/2000/svg" viewBox="0 0 790 505">
	<defs>
	    <style>
	    	.cls-1{fill:#d89e9e;stroke:#fff;stroke-miterlimit:10;}
	    </style>
	</defs>
	<title>Untitled-2</title>
	<path class="cls-1" d="M775.5,29.5a14,14,0,0,0,14,14v23a14,14,0,0,0,0,28v23a14,14,0,0,0,0,28v18.21a91,91,0,0,0,0,177.58V359.5a14,14,0,0,0,0,28v23a14,14,0,0,0,0,28v23a14,14,0,0,0,0,28v15H.5v-15a14,14,0,0,0,0-28v-23a14,14,0,0,0,0-28v-23a14,14,0,0,0,0-28V341.29a91,91,0,0,0,71-88.79,91,91,0,0,0-71-88.79V145.5a14,14,0,0,0,0-28v-23a14,14,0,0,0,0-28v-23a14,14,0,0,0,0-28V.5h789v15A14,14,0,0,0,775.5,29.5Z"/>
</svg>